<svg version="1.1" xmlns="http://www.w3.org/2000/svg" xmlns:xlink="http://www.w3.org/1999/xlink" width="505" height="394" viewBox="0,0,505,394"><g transform="translate(12.5,17)"><g stroke-miterlimit="10"><path d="M-9,373.5v-387h498v387z" fill="#e2edff" stroke="#000000" stroke-width="7" stroke-linecap="butt"/><path d="M109.59519,66.47695l-0.95755,50.75009l9.69155,-38.7082" fill="#141f2d" stroke="#000000" stroke-width="2" stroke-linecap="round"/><path d="M26.34029,97.53675c5.48408,8.55837 11.14354,16.93265 37.5726,21.57815c35.96853,6.32228 44.98089,-5.54349 46.60796,-9.53956c5.73144,-14.79953 2.28456,-21.27918 2.28456,-21.27918c0,0 6.2292,-20.59748 5.39207,-28.24643c-0.8734,-7.98035 -56.97719,-23.45513 -74.59113,-13.63418c-26.1697,14.59136 -23.82822,40.8804 -17.26607,51.12121z" fill="#ffddd0" stroke="#000000" stroke-width="2" stroke-linecap="round"/><g><path d="M89.4435,95.39695c0,0 2.48001,1.42414 3.94638,1.59069c1.43822,0.16335 5.37243,-0.50714 5.37243,-0.50714c0,0 4.82712,-15.63328 -1.962,-16.62534c-6.78912,-0.99205 -7.35681,15.54179 -7.35681,15.54179z" fill="#ffffff" stroke="#000000" stroke-width="2" stroke-linecap="round"/><path d="M95.27507,87.90893c2.8235,0.45688 3.41788,5.14084 3.85474,2.17432c0.5937,-4.0315 0.6325,-8.88213 -2.48837,-9.33251c-3.15296,-0.45502 -4.71089,4.36113 -5.46242,8.46677c-0.53973,2.94854 1.40398,-1.7442 4.09605,-1.30859z" fill="#cfd8e9" stroke="#000000" stroke-width="0" stroke-linecap="round"/><path d="M96.25221,89.8667c-0.1367,0.84967 -0.34955,1.52205 -0.47543,1.50179c-0.12587,-0.02026 -0.1171,-0.72546 0.01959,-1.57512c0.1367,-0.84967 0.34955,-1.52205 0.47543,-1.50179c0.12587,0.02026 0.1171,0.72546 -0.01959,1.57513z" fill="none" stroke="#191919" stroke-width="2" stroke-linecap="butt"/></g><g><path d="M46.79729,90.8684c0,0 2.48001,1.42415 3.94638,1.5907c1.43822,0.16335 5.37243,-0.50715 5.37243,-0.50715c0,0 4.82712,-15.63327 -1.962,-16.62533c-6.78912,-0.99205 -7.35682,15.54178 -7.35682,15.54178z" fill="#ffffff" stroke="#000000" stroke-width="2" stroke-linecap="round"/><path d="M52.62886,83.38038c2.8235,0.45688 3.41787,5.14084 3.85473,2.17433c0.5937,-4.0315 0.63251,-8.88213 -2.48836,-9.33251c-3.15295,-0.45502 -4.71089,4.36113 -5.46242,8.46678c-0.53973,2.94854 1.40398,-1.74421 4.09605,-1.30859z" fill="#cfd8e9" stroke="#000000" stroke-width="0" stroke-linecap="round"/><path d="M53.606,85.33815c-0.1367,0.84967 -0.34955,1.52205 -0.47543,1.50179c-0.12588,-0.02026 -0.11711,-0.72545 0.01959,-1.57512c0.1367,-0.84967 0.34955,-1.52205 0.47542,-1.50179c0.12588,0.02026 0.11711,0.72545 -0.01958,1.57512z" fill="none" stroke="#191919" stroke-width="2" stroke-linecap="butt"/></g><path d="M78.54647,95.0825c-0.10036,1.17931 -2.69128,1.92176 -5.78697,1.65829c-3.09569,-0.26346 -5.52387,-1.43306 -5.42351,-2.61237c0.10036,-1.17931 2.69128,-1.92176 5.78697,-1.65829c3.09569,0.26346 5.52387,1.43306 5.42351,2.61237z" fill="#ff4937" stroke="#000000" stroke-width="2" stroke-linecap="butt"/><path d="M58.96574,101.6033c0,0 2.41081,1.77347 5.72668,2.01333c2.1229,0.15357 4.98331,-1.26651 6.61785,-1.08467c1.65431,0.18405 3.66051,2.00083 5.88777,2.33311c3.38483,0.50498 6.83612,-0.47281 6.83612,-0.47281" fill="none" stroke="#000000" stroke-width="2" stroke-linecap="round"/><path d="M115.07432,68.99151l-7.33243,8.96785l-13.73146,-12.55776l-17.1944,5.19119l-15.2579,-7.65678l-17.37423,9.94277l-5.52473,-14.21942l-5.60558,11.13409l-13.87847,31.95301l3.83127,-49.19104l12.3781,-13.12828l43.88597,-6.3766l29.63241,10.87772l12.3781,16.50412l-4.12603,30.75769z" fill="#141f2d" stroke="#000000" stroke-width="2" stroke-linecap="round"/><path d="M24.40214,77.2562c0,0 -8.53719,-1.60301 -8.04213,6.66788c0.49507,8.27089 8.80211,6.02875 8.80211,6.02875" fill="#ffddd0" stroke="#000000" stroke-width="2" stroke-linecap="round"/><path d="M69.0731,35.84043l-27.93425,0.12714l-4.60748,7.66644" fill="#141f2d" stroke="#000000" stroke-width="2" stroke-linecap="round"/><path d="M85.92618,36.9681l16.44033,1.48891l8.13934,10.70678" fill="#141f2d" stroke="#000000" stroke-width="2" stroke-linecap="round"/><path d="M24.48028,74.72304l0.63837,22.82158l9.09671,-31.12033" fill="#141f2d" stroke="#000000" stroke-width="2" stroke-linecap="round"/></g></g></svg>
