<svg version="1.1" xmlns="http://www.w3.org/2000/svg" xmlns:xlink="http://www.w3.org/1999/xlink" width="80.38681" height="56.38273" viewBox="0,0,80.38681,56.38273"><g transform="translate(-199.8066,-148.51656)"><g stroke="#000000" stroke-width="7" stroke-miterlimit="10"><path d="M250.8583,159.17343c0,0 -1.77689,-5.59743 1.17647,-6.76471c2.95336,-1.16728 10.67301,-2.51502 16.76471,-0.39216c6.0917,2.12286 2.64706,7.15686 2.64706,7.15686z" fill="#62789c"/><path d="M203.3066,201.39929v-42.79857h73.38681v42.79857z" fill="#e2edff"/><path d="M227.30392,180c0,-7.01185 5.68423,-12.69608 12.69608,-12.69608c7.01185,0 12.69608,5.68423 12.69608,12.69608c0,7.01185 -5.68423,12.69608 -12.69608,12.69608c-7.01185,0 -12.69608,-5.68423 -12.69608,-12.69608z" fill="#62789c"/><path d="M237.89216,180c0,-1.16413 0.94371,-2.10784 2.10784,-2.10784c1.16413,0 2.10784,0.94371 2.10784,2.10784c0,1.16413 -0.94371,2.10784 -2.10784,2.10784c-1.16413,0 -2.10784,-0.94371 -2.10784,-2.10784z" fill="#e2edff"/></g></g></svg>
