<svg version="1.1" xmlns="http://www.w3.org/2000/svg" xmlns:xlink="http://www.w3.org/1999/xlink" width="137.65574" height="145.49777" viewBox="0,0,137.65574,145.49777"><g transform="translate(-149.7053,-93.89859)"><g stroke-miterlimit="10"><path d="M239.95611,179.29653c-4.50187,0.25457 -9.73092,-4.88668 -5.26374,-8.06284c4.46718,-3.17615 10.35537,-2.01439 13.16187,2.44729c2.8065,4.46168 1.01829,13.0178 -2.84561,14.80451c-5.85648,2.7081 -11.61563,4.18525 -15.90799,-2.86911c-4.29236,-7.05437 -7.59786,-16.14289 1.85262,-21.03109c9.45049,-4.88819 19.45992,-4.73927 25.29811,4.81619c5.83819,9.55546 3.96915,20.04964 -6.13012,26.5564c-10.09927,6.50677 -19.3121,6.70244 -28.35264,-4.33982c-9.15915,-11.18714 -6.67918,-27.99348 1.39031,-33.14672c13.48621,-8.61238 30.48434,-7.47449 39.03933,5.88156c9.10846,14.22012 7.8827,29.08755 -5.9995,38.90166c-13.8822,9.81411 -28.95265,10.30074 -40.27123,-6.19028c-11.31859,-16.49102 -13.63258,-35.62238 3.45833,-47.52261c17.09091,-11.90022 35.55421,-9.26944 48.65124,8.79119c13.09702,18.06063 13.02361,38.4204 -5.59653,51.77291c-18.62014,13.35251 -37.22484,13.81592 -55.21995,-9.98003" fill="none" stroke-opacity="0.6" stroke="#663211" stroke-width="3" stroke-linecap="round"/><path d="M235.55483,136.60367l-27.59441,47.87748l43.63218,-26.1793l-48.82087,77.59452" fill="none" stroke-opacity="0.6" stroke="#143475" stroke-width="7" stroke-linecap="round"/><path d="M260.55488,124.10364l-27.59441,47.87747l43.63218,-26.17931l-48.82087,77.59453" fill="none" stroke-opacity="0.6" stroke="#091733" stroke-width="7" stroke-linecap="round"/><text transform="translate(153.34395,192.59673) rotate(-40.87521) scale(0.19524,0.12817) skewX(0)" font-size="40" xml:space="preserve" fill-opacity="0.6" fill="#000000" stroke="none" stroke-width="1" stroke-linecap="butt" font-family="&quot;BakbakOne-Regular&quot;, Sans Serif" font-weight="normal" text-anchor="start"><tspan x="0" dy="0">symmetricspiral.github.io/spiralsgames</tspan></text></g></g></svg>